<svg xmlns="http://www.w3.org/2000/svg" version="1.1" xmlns:xlink="http://www.w3.org/1999/xlink" xmlns:svgjs="http://svgjs.dev/svgjs" width="1500" height="1500" viewBox="0 0 1500 1500"><rect width="1500" height="1500" fill="#ffffff"></rect><g transform="matrix(0.6666666666666666,0,0,0.6666666666666666,249.39393939393938,438.58569500674764)"><svg viewBox="0 0 396 247" data-background-color="#000000" preserveAspectRatio="xMidYMid meet" height="935" width="1500" xmlns="http://www.w3.org/2000/svg" xmlns:xlink="http://www.w3.org/1999/xlink"><g id="tight-bounds" transform="matrix(1,0,0,1,0.2400000000000091,-0.09999999999999432)"><svg viewBox="0 0 395.52 247.2" height="247.2" width="395.52"><g><svg></svg></g><g><svg viewBox="0 0 395.52 247.2" height="247.2" width="395.52"><g transform="matrix(1,0,0,1,75.54432,104.27496376802307)"><svg viewBox="0 0 244.43135999999998 38.650072463953855" height="38.650072463953855" width="244.43135999999998"><g><svg viewBox="0 0 244.43135999999998 38.650072463953855" height="38.650072463953855" width="244.43135999999998"><g><svg viewBox="0 0 244.43135999999998 38.650072463953855" height="38.650072463953855" width="244.43135999999998"><g><svg viewBox="0 0 244.43135999999998 38.650072463953855" height="38.650072463953855" width="244.43135999999998"><g id="textblocktransform"><svg viewBox="0 0 244.43135999999998 38.650072463953855" height="38.650072463953855" width="244.43135999999998" id="textblock"><g><svg viewBox="0 0 244.43135999999998 38.650072463953855" height="38.650072463953855" width="244.43135999999998"><g transform="matrix(1,0,0,1,0,0)"><svg width="244.43135999999998" viewBox="0.65 -38.7 312.07000000000005 49.35" height="38.650072463953855" data-palette-color="#ffffff"><path d="M0.65-4.55L4.55-9.95Q8.8-5.7 13.05-5.7L13.05-5.7Q15.25-5.7 16.57-6.73 17.9-7.75 17.9-9.38 17.9-11 16.3-12.13 14.7-13.25 12.43-14.1 10.15-14.95 7.9-16.03 5.65-17.1 4.05-19.1 2.45-21.1 2.45-23.95L2.45-23.95Q2.45-28.45 6.2-31.73 9.95-35 15.1-35L15.1-35Q17.45-35 19.65-34.5 21.85-34 23.9-33.05L23.9-33.05 20.5-25.75Q19.1-26.85 16.68-27.78 14.25-28.7 12.43-28.7 10.6-28.7 9.47-27.83 8.35-26.95 8.35-25.5 8.35-24.05 9.95-22.93 11.55-21.8 13.83-20.95 16.1-20.1 18.38-19.07 20.65-18.05 22.25-16.05 23.85-14.05 23.85-11.2L23.85-11.2Q23.85-6.5 20.1-2.98 16.35 0.55 11.35 0.55L11.35 0.55Q7.6 0.55 4.7-1.25L4.7-1.25Q2.15-2.8 1.1-4L1.1-4 0.65-4.55ZM33.05 0Q30.1 0 28.22-1.88 26.35-3.75 26.35-6.93 26.35-10.1 29.25-12.43 32.15-14.75 36.3-14.75L36.3-14.75 39.7-14.75 39.7-15.6Q39.7-18.05 38.7-18.95 37.7-19.85 34.95-19.85L34.95-19.85Q33.8-19.85 32.22-19.38 30.65-18.9 28.7-17.9L28.7-17.9 27.25-21.85Q29.4-23.35 32.47-24.55 35.55-25.75 37.55-25.75L37.55-25.75Q45.4-25.75 45.4-18.15L45.4-18.15 45.4-8.35Q45.4-5.55 47.15-2.1L47.15-2.1 41.85 0.15Q40.6-2.25 40-4.15L40-4.15Q37.25 0 33.05 0L33.05 0ZM35.15-5.1L35.15-5.1Q37.15-5.1 39.7-7.15L39.7-7.15 39.7-10.5Q37.05-11.1 35.4-11.1L35.4-11.1Q32.25-11.1 32.25-8.3L32.25-8.3Q32.25-6.85 33.05-5.98 33.85-5.1 35.15-5.1ZM66-12.65Q66-16.1 65.4-17.25 64.8-18.4 62.6-18.4 60.4-18.4 57.6-16.65L57.6-16.65 57.6-13 58.15-1.25 51.45 0 52.05-12.15Q51.85-18.85 50.95-24.15L50.95-24.15 57-25.45Q57.35-22.55 57.5-19.8L57.5-19.8Q58.25-20.8 59.2-21.78 60.15-22.75 62.2-23.98 64.25-25.2 66.52-25.2 68.8-25.2 70.34-23.43 71.9-21.65 71.9-18.6L71.9-18.6 71.59-13 72.15-1 65.4 0.25 66-12.65ZM90.84-4.9L90.84-4.9Q86.94 0 84.09 0L84.09 0Q80.54 0 78.27-2.9 75.99-5.8 75.99-10.35L75.99-10.35Q75.99-16.6 79.47-20.9 82.94-25.2 87.99-25.2L87.99-25.2 90.79-24.8 90.79-25.75 90.19-37.45 97.04-38.7 96.39-13 96.39-8.6Q96.39-5.6 97.89-1.7L97.89-1.7 92.49 0.55Q91.04-2.45 90.84-4.9ZM81.59-12.95Q81.59-9.75 82.77-7.95 83.94-6.15 86.17-6.15 88.39-6.15 90.79-7.95L90.79-7.95 90.79-18.75Q87.79-19.35 86.34-19.35L86.34-19.35Q84.09-19.35 82.84-17.75 81.59-16.15 81.59-12.95ZM111.74-5.1L111.74-5.1Q113.19-5.1 114.79-5.85 116.39-6.6 117.29-7.35L117.29-7.35 118.19-8.1 120.49-5.3Q119.99-4.45 118.94-3.35 117.89-2.25 116.81-1.48 115.74-0.7 113.97-0.08 112.19 0.55 110.29 0.55L110.29 0.55Q106.24 0.55 103.69-2.53 101.14-5.6 101.14-10.45L101.14-10.45Q101.14-16.55 104.69-21.15 108.24-25.75 112.99-25.75L112.99-25.75Q116.64-25.75 118.67-23.7 120.69-21.65 120.69-17.95L120.69-17.95Q120.69-15.75 119.94-12.95L119.94-12.95 118.94-11.9 106.44-10.75Q107.29-5.1 111.74-5.1ZM111.74-20.6L111.74-20.6Q109.54-20.6 108.04-18.82 106.54-17.05 106.29-14.3L106.29-14.3 114.79-15.35Q114.94-16.5 114.94-17.25L114.94-17.25Q114.94-20.6 111.74-20.6ZM134.04-5.1L134.04-5.1Q135.49-5.1 137.09-5.85 138.69-6.6 139.59-7.35L139.59-7.35 140.49-8.1 142.79-5.3Q142.29-4.45 141.24-3.35 140.19-2.25 139.11-1.48 138.04-0.7 136.26-0.08 134.49 0.55 132.59 0.55L132.59 0.55Q128.54 0.55 125.99-2.53 123.44-5.6 123.44-10.45L123.44-10.45Q123.44-16.55 126.99-21.15 130.54-25.75 135.29-25.75L135.29-25.75Q138.94-25.75 140.96-23.7 142.99-21.65 142.99-17.95L142.99-17.95Q142.99-15.75 142.24-12.95L142.24-12.95 141.24-11.9 128.74-10.75Q129.59-5.1 134.04-5.1ZM134.04-20.6L134.04-20.6Q131.84-20.6 130.34-18.82 128.84-17.05 128.59-14.3L128.59-14.3 137.09-15.35Q137.24-16.5 137.24-17.25L137.24-17.25Q137.24-20.6 134.04-20.6ZM160.69-25.25L160.69-25.25Q163.88-25.25 166.06-22.45 168.24-19.65 168.24-14.9L168.24-14.9Q168.24-8.25 164.81-4.13 161.38 0 156.28 0L156.28 0Q155.24 0 153.94-0.15L153.94-0.15 154.19 9.4 147.34 10.65 147.99-12.15 148.03-12.15Q147.84-18.85 146.94-24.15L146.94-24.15 152.99-25.45Q153.28-22.8 153.49-20.2L153.49-20.2Q153.59-20.45 154.51-21.58 155.44-22.7 157.24-23.98 159.03-25.25 160.69-25.25ZM158.74-18.75L158.74-18.75Q156.09-18.75 153.59-17.3L153.59-17.3 153.59-13 153.78-5.85Q156.49-5.4 157.88-5.4L157.88-5.4Q162.69-5.4 162.69-12.08 162.69-18.75 158.74-18.75ZM181.18-33.5L188.28-34.75 187.73-18.45 200.48-34.65 205.58-31.25 194.08-17.9 206.28-3.45 199.88 0.55 187.68-16.7 187.58-13 188.18 0 181.18 0 181.78-12.15 181.18-33.5ZM214.98 0L214.98 0Q212.28 0 210.6-1.78 208.93-3.55 208.93-6.45L208.93-6.45 209.23-12.2 208.68-24.2 215.38-25.45 214.73-10.25Q214.73-8.1 215.5-7.1 216.28-6.1 217.98-6.1 219.68-6.1 222.68-7.8L222.68-7.8 222.68-10.8 222.13-23.95 228.88-25.2 228.28-12.7 228.33-8.6Q228.33-5.4 229.98-2.15L229.98-2.15 224.78 0.15Q223.13-3.1 222.78-5.05L222.78-5.05Q218.28 0 214.98 0ZM248.98-12.65Q248.98-16.1 248.38-17.25 247.78-18.4 245.58-18.4 243.38-18.4 240.58-16.65L240.58-16.65 240.58-13 241.13-1.25 234.43 0 235.03-12.15Q234.83-18.85 233.93-24.15L233.93-24.15 239.98-25.45Q240.33-22.55 240.48-19.8L240.48-19.8Q241.23-20.8 242.18-21.78 243.13-22.75 245.18-23.98 247.23-25.2 249.33-25.2 251.43-25.2 252.88-23.85 254.33-22.5 254.73-20.15L254.73-20.15Q258.88-25.2 263.13-25.2L263.13-25.2Q265.78-25.2 267.33-23.43 268.88-21.65 268.88-18.6L268.88-18.6 268.58-13 269.13-1 262.38 0.25 262.98-12.65Q262.98-16.1 262.38-17.25 261.78-18.4 259.63-18.4 257.48-18.4 254.78-16.75L254.78-16.75 254.58-13 255.13-1 248.38 0.25 248.98-12.65ZM279.62 0Q276.67 0 274.8-1.88 272.92-3.75 272.92-6.93 272.92-10.1 275.82-12.43 278.72-14.75 282.87-14.75L282.87-14.75 286.27-14.75 286.27-15.6Q286.27-18.05 285.27-18.95 284.27-19.85 281.52-19.85L281.52-19.85Q280.37-19.85 278.8-19.38 277.22-18.9 275.27-17.9L275.27-17.9 273.82-21.85Q275.97-23.35 279.05-24.55 282.12-25.75 284.12-25.75L284.12-25.75Q291.97-25.75 291.97-18.15L291.97-18.15 291.97-8.35Q291.97-5.55 293.72-2.1L293.72-2.1 288.42 0.15Q287.17-2.25 286.57-4.15L286.57-4.15Q283.82 0 279.62 0L279.62 0ZM281.72-5.1L281.72-5.1Q283.72-5.1 286.27-7.15L286.27-7.15 286.27-10.5Q283.62-11.1 281.97-11.1L281.97-11.1Q278.82-11.1 278.82-8.3L278.82-8.3Q278.82-6.85 279.62-5.98 280.42-5.1 281.72-5.1ZM297.52-24.15L297.52-24.15 303.57-25.45Q304.02-21.6 304.17-18.15L304.17-18.15Q308.72-25.2 312.72-25.2L312.72-25.2 312.17-17.4Q309.27-17.4 307.6-16.88 305.92-16.35 304.17-14.8L304.17-14.8 304.17-13 304.72-1.25 298.02 0 298.62-12.15Q298.42-18.85 297.52-24.15Z" opacity="1" transform="matrix(1,0,0,1,0,0)" fill="#000000" class="wordmark-text-0" data-fill-palette-color="primary" id="text-0"></path></svg></g></svg></g></svg></g></svg></g><g></g></svg></g></svg></g></svg></g><g><path d="M78.902 95.151A122.216 122.216 0 0 1 316.618 95.151L313.133 95.151A118.73 118.73 0 0 0 82.387 95.151L78.902 95.151M78.902 152.049A122.216 122.216 0 0 0 316.618 152.049L313.133 152.049A118.73 118.73 0 0 1 82.387 152.049L78.902 152.049" fill="#000000" stroke="transparent" data-fill-palette-color="tertiary"></path></g></svg></g><defs></defs></svg><rect width="395.52" height="247.2" fill="none" stroke="none" visibility="hidden"></rect></g></svg></g></svg>